PathFileType	4	(X/Y/Z)	./resultDataOpenSim/trcMotMarkerGrf/sub09/qtm-01-08.trc
DataRate	CameraRate	NumFrames	NumMarkers	Units	OrigDataRate	OrigDataStartFrame	OrigNumFrames
250.000000	250.000000	6	24	m	250.000000	236	470
Frame#	Time	L.Toe.Tip			R.Toe.Tip			L.Ankle.Lat			R.Ankle.Lat			L.Ankle.Med			R.Ankle.Med			L.Heel			R.Heel			L.Knee.Lat			R.Knee.Lat			L.Knee.Med			R.Knee.Med			L.Thigh.Upper			R.Thigh.Upper			L.ASIS			R.ASIS			V.Sacral			L.Acromium			R.Acromium			C7			L.Elbow			R.Elbow			L.Wrist.Lat			R.Wrist.Lat
		X1	Y1	Z1	X2	Y2	Z2	X3	Y3	Z3	X4	Y4	Z4	X5	Y5	Z5	X6	Y6	Z6	X7	Y7	Z7	X8	Y8	Z8	X9	Y9	Z9	X10	Y10	Z10	X11	Y11	Z11	X12	Y12	Z12	X13	Y13	Z13	X14	Y14	Z14	X15	Y15	Z15	X16	Y16	Z16	X17	Y17	Z17	X18	Y18	Z18	X19	Y19	Z19	X20	Y20	Z20	X21	Y21	Z21	X22	Y22	Z22	X23	Y23	Z23	X24	Y24	Z24

236	0.94	0.10510312	0.039523448	0.027443397	0.25438368	0.091838574	0.15259295	-0.036858251	0.07360298	-0.023872521	0.11072679	0.13320802	0.16121846	-0.025193673	0.093215396	0.074709069	0.14298891	0.16145917	0.070448035	-0.11544148	0.043376935	0.014963062	0.049040813	0.11692019	0.10186472	0.084001495	0.47394486	-0.071137182	0.27257424	0.55624816	0.20298907	0.06600762	0.47571409	0.056072439	0.27232787	0.54256651	0.077258012	0.074134649	0.89997778	-0.1286925	0.062385944	0.90683202	0.24440973	0.15158526	0.98600132	-0.062135198	0.14079152	0.99347151	0.1752161	-0.015429116	1.0436067	0.056326319	0.15611237	1.4422688	-0.10403754	0.1081224	1.4511244	0.22133162	0.065576175	1.4944901	0.05121256	0.022219661	1.0991753	-0.1837452	-0.036316958	1.1141197	0.29543299	0.19906425	0.89547136	-0.18366818	0.10836256	0.88250902	0.31744374
237	0.944	0.10505416	0.039404738	0.027565646	0.27424995	0.09136955	0.15252368	-0.036853226	0.073750095	-0.023809677	0.12959351	0.1291389	0.16138515	-0.025022526	0.093307167	0.074683799	0.16108705	0.15835864	0.070555106	-0.11539904	0.043608634	0.014919605	0.068333462	0.11156967	0.10204405	0.085089932	0.47381301	-0.071272051	0.28020083	0.55714575	0.20299947	0.067314686	0.47576014	0.055960414	0.2794861	0.54316818	0.077664109	0.079420538	0.89970487	-0.12856822	0.068615525	0.90698503	0.24474238	0.15729734	0.9856999	-0.062130512	0.14701117	0.99356125	0.17535238	-0.0094221662	1.043571	0.056662067	0.16211259	1.4423273	-0.10387045	0.11405568	1.4509555	0.22148435	0.071472177	1.4944346	0.051365822	0.02912417	1.0988257	-0.18362841	-0.031240266	1.1142442	0.2949857	0.2075115	0.89633078	-0.18282341	0.11315574	0.88230981	0.31811314
238	0.948	0.10502124	0.039321375	0.027619806	0.29406996	0.090993074	0.15237899	-0.037011307	0.073947129	-0.023613251	0.14860375	0.12518708	0.16154915	-0.024879701	0.093412342	0.074678885	0.17921577	0.15537009	0.070712095	-0.11534013	0.04386392	0.014838175	0.087786993	0.10634808	0.10211793	0.086167355	0.47369724	-0.07142436	0.28779314	0.55790121	0.20307069	0.068700045	0.47573369	0.055838683	0.28667298	0.54361433	0.077895827	0.084598736	0.89935681	-0.12853642	0.074863014	0.90701617	0.24506643	0.16299982	0.98534983	-0.062141778	0.15323945	0.99354401	0.17547453	-0.0034205105	1.0434463	0.057025169	0.16810455	1.4422925	-0.10371222	0.12002208	1.450709	0.22164222	0.077366375	1.4943231	0.051534143	0.03602831	1.098392	-0.18351025	-0.025871088	1.1142369	0.29483336	0.21596436	0.8971207	-0.18197234	0.1179769	0.88201728	0.31876955
239	0.952	0.10501011	0.039273276	0.027608878	0.31388773	0.090703761	0.15216892	-0.037195678	0.074144294	-0.023393087	0.16783888	0.1213432	0.16168109	-0.024751277	0.093547318	0.07467225	0.19735362	0.15251354	0.070918543	-0.11530639	0.044146892	0.014794071	0.10739713	0.10128353	0.10215727	0.087223751	0.47359845	-0.071596044	0.29536287	0.55851828	0.20322549	0.070322871	0.47559453	0.055658154	0.29381538	0.5438551	0.078052779	0.089637203	0.89895463	-0.12851969	0.081127748	0.90692955	0.24537678	0.1686923	0.98495695	-0.062167092	0.15944276	0.99342439	0.17556119	0.0025756075	1.0432163	0.05741849	0.17409018	1.4421705	-0.10356813	0.1260054	1.4503961	0.22181016	0.083265077	1.4941395	0.051708233	0.042901097	1.0978364	-0.18337546	-0.020145	1.1141295	0.29491227	0.22440973	0.8978348	-0.18112118	0.12282442	0.88163452	0.3194069
240	0.956	0.10498786	0.039243728	0.027577706	0.33372377	0.090500967	0.15191548	-0.037240551	0.07430088	-0.023306601	0.18726566	0.11761825	0.16179632	-0.02460946	0.093700385	0.074650814	0.21549021	0.14980663	0.071171677	-0.11531601	0.044451945	0.014824289	0.12712059	0.096406966	0.10223577	0.088258361	0.47352011	-0.071784207	0.30285302	0.55898467	0.20345874	0.072183232	0.47540645	0.05540433	0.300867	0.54388287	0.078238134	0.094498862	0.89855116	-0.12827585	0.087405072	0.90672973	0.24567157	0.17438689	0.98452781	-0.062201522	0.16562511	0.99320389	0.17561293	0.0085634743	1.042881	0.057854808	0.18008607	1.4419661	-0.10343598	0.13199415	1.4500245	0.22198729	0.089182662	1.4938704	0.051886351	0.049741252	1.0971567	-0.18321873	-0.014233431	1.1139651	0.29491934	0.23283728	0.89847659	-0.18028021	0.12770492	0.88116712	0.32002813
241	0.96	0.10492875	0.039221473	0.027562259	0.35356063	0.090404481	0.1516455	-0.037162313	0.074439858	-0.02336206	0.2066708	0.11408093	0.16195958	-0.024434408	0.093868761	0.074617113	0.23362924	0.14726291	0.071464198	-0.11537864	0.044772693	0.014956949	0.14688173	0.091753019	0.1024052	0.089278863	0.47346359	-0.071981025	0.31017415	0.55927977	0.20373982	0.073926275	0.47528739	0.055191398	0.3077917	0.54371785	0.078559374	0.099112823	0.89820566	-0.12756783	0.093695007	0.90642226	0.24595293	0.18009791	0.98406701	-0.062243519	0.17181905	0.99287923	0.17564586	0.014548368	1.0424524	0.058337731	0.1861092	1.4416827	-0.10330529	0.13798949	1.4495947	0.22216872	0.095128742	1.4935154	0.052075403	0.056565787	1.0963767	-0.18304582	-0.0082775195	1.1137542	0.2948302	0.24124589	0.89905556	-0.17944879	0.1326256	0.88062037	0.3206415
